<svg xmlns="http://www.w3.org/2000/svg" version="1.1" xmlns:xlink="http://www.w3.org/1999/xlink" xmlns:svgjs="http://svgjs.com/svgjs" width="1080" height="640" preserveAspectRatio="none" viewBox="0 0 1080 640"><g mask="url(&quot;#SvgjsMask1468&quot;)" fill="none"><rect width="1080" height="640" x="0" y="0" fill="url(#SvgjsLinearGradient1469)"></rect><path d="M-83.28 -2.05 a81.23 81.23 0 1 0 162.46 0 a81.23 81.23 0 1 0 -162.46 0z" fill="rgba(87, 179, 255, 0.4)" class="triangle-float3"></path><path d="M-87.24 1.92 a89.16 89.16 0 1 0 178.32 0 a89.16 89.16 0 1 0 -178.32 0z" fill="rgba(87, 179, 255, 0.4)" class="triangle-float3"></path><path d="M107.423,228.406C152.079,227.732,195.055,209.55,218.862,171.763C244.337,131.329,249.27,80.658,227.223,38.257C203.406,-7.548,158.94,-45.926,107.423,-42.554C59.451,-39.414,34.835,10.026,12.019,52.342C-9.147,91.597,-31.243,136.004,-9.996,175.215C11.945,215.706,61.375,229.101,107.423,228.406" fill="rgba(87, 179, 255, 0.4)" class="triangle-float3"></path><path d="M876.6 -9.93 a65.47 65.47 0 1 0 130.94 0 a65.47 65.47 0 1 0 -130.94 0z" fill="rgba(87, 179, 255, 0.4)" class="triangle-float1"></path><path d="M1024.29,184.786C1063.46,183.956,1097.455,159.768,1116.6,125.585C1135.29,92.214,1136.468,51.69,1117.406,18.529C1098.283,-14.738,1062.605,-37.089,1024.29,-34.999C988.831,-33.065,965.594,-2.596,947.248,27.81C928.007,59.699,908.539,96.211,924.948,129.645C942.832,166.085,983.707,185.646,1024.29,184.786" fill="rgba(87, 179, 255, 0.4)" class="triangle-float1"></path><path d="M869.22 -2.56 a80.22 80.22 0 1 0 160.44 0 a80.22 80.22 0 1 0 -160.44 0z" fill="rgba(87, 179, 255, 0.4)" class="triangle-float3"></path><path d="M164.114,872.995C234.296,877.927,299.568,835.558,334.698,774.601C369.78,713.727,372.335,636.922,334.157,577.94C298.685,523.138,229.388,510.183,164.114,511.061C100.78,511.913,32.405,526.947,1.815,582.41C-28.073,636.599,0.372,699.199,30.549,753.228C61.802,809.185,100.179,868.502,164.114,872.995" fill="rgba(87, 179, 255, 0.4)" class="triangle-float3"></path><path d="M-142.47 569.13 a199.6 199.6 0 1 0 399.2 0 a199.6 199.6 0 1 0 -399.2 0z" fill="rgba(87, 179, 255, 0.4)" class="triangle-float2"></path><path d="M-47.71 474.38 a10.09 10.09 0 1 0 20.18 0 a10.09 10.09 0 1 0 -20.18 0z" fill="rgba(87, 179, 255, 0.4)" class="triangle-float3"></path><path d="M1008.093,655.708C1040.905,656.587,1074.328,644.235,1090.898,615.9C1107.603,587.334,1103.736,551.01,1085.443,523.434C1068.884,498.471,1038.048,491.3,1008.093,491.071C977.612,490.838,944.839,496.398,928.67,522.238C911.707,549.346,916.281,584.178,932.634,611.659C948.597,638.485,976.888,654.872,1008.093,655.708" fill="rgba(87, 179, 255, 0.4)" class="triangle-float1"></path><path d="M906.23 472.44 a6.21 6.21 0 1 0 12.42 0 a6.21 6.21 0 1 0 -12.42 0z" fill="rgba(87, 179, 255, 0.4)" class="triangle-float2"></path><path d="M863.6 515.06 a91.46 91.46 0 1 0 182.92 0 a91.46 91.46 0 1 0 -182.92 0z" fill="rgba(87, 179, 255, 0.4)" class="triangle-float2"></path></g><defs><mask id="SvgjsMask1468"><rect width="1080" height="640" fill="#ffffff"></rect></mask><linearGradient x1="10.19%" y1="-17.19%" x2="89.81%" y2="117.19%" gradientUnits="userSpaceOnUse" id="SvgjsLinearGradient1469"><stop stop-color="rgba(255, 241, 231, 1)" offset="0"></stop><stop stop-color="rgba(255, 241, 254, 1)" offset="1"></stop></linearGradient></defs></svg>