<svg xmlns="http://www.w3.org/2000/svg" version="1.1" xmlns:xlink="http://www.w3.org/1999/xlink" xmlns:svgjs="http://svgjs.com/svgjs" width="1080" height="640" preserveAspectRatio="none" viewBox="0 0 1080 640"><g mask="url(&quot;#SvgjsMask1434&quot;)" fill="none"><rect width="1080" height="640" x="0" y="0" fill="url(#SvgjsLinearGradient1435)"></rect><path d="M615.917,363.178C661.153,362.983,707.427,346.181,729.137,306.495C750.177,268.034,736.387,222.179,713.504,184.785C691.812,149.336,657.381,124.281,615.917,121.472C568.633,118.269,517.292,129.487,492.382,169.804C466.479,211.729,474.463,265.947,500.994,307.478C525.557,345.928,570.291,363.375,615.917,363.178" fill="rgba(87, 179, 255, 0.4)" class="triangle-float3"></path><path d="M-12.38 306.43 a109.19 109.19 0 1 0 218.38 0 a109.19 109.19 0 1 0 -218.38 0z" fill="rgba(87, 179, 255, 0.4)" class="triangle-float1"></path><path d="M-67.72 199.48 a135.09 135.09 0 1 0 270.18 0 a135.09 135.09 0 1 0 -270.18 0z" fill="rgba(87, 179, 255, 0.4)" class="triangle-float3"></path><path d="M312.396,485.565C338.568,485.418,363.971,473.308,376.672,450.425C389.047,428.129,384.966,400.841,371.408,379.244C358.727,359.044,336.246,348.131,312.396,348.035C288.362,347.938,265.445,358.48,252.553,378.764C238.638,400.658,234.177,428.522,246.858,451.153C259.785,474.224,285.95,485.713,312.396,485.565" fill="rgba(87, 179, 255, 0.4)" class="triangle-float3"></path><path d="M1020.621,816.213C1069.238,814.603,1115.419,792.777,1140.052,750.831C1164.995,708.358,1163.978,655.979,1139.982,612.965C1115.332,568.78,1071.2,535.418,1020.621,536.748C971.871,538.03,936.819,577.193,911.662,618.97C885.406,662.573,862.044,714.671,886.655,759.223C911.805,804.75,968.637,817.935,1020.621,816.213" fill="rgba(87, 179, 255, 0.4)" class="triangle-float2"></path><path d="M503.18,403.258C535.332,404.047,564.783,384.685,580.024,356.364C594.531,329.408,589.521,297.495,574.429,270.862C559.087,243.787,534.276,221.985,503.18,220.751C470.026,219.436,437.061,235.532,421.415,264.792C406.478,292.726,416.491,325.473,432.598,352.749C448.365,379.449,472.181,402.498,503.18,403.258" fill="rgba(87, 179, 255, 0.4)" class="triangle-float3"></path><path d="M-137.62 287.27 a206.14 206.14 0 1 0 412.28 0 a206.14 206.14 0 1 0 -412.28 0z" fill="rgba(87, 179, 255, 0.4)" class="triangle-float2"></path><path d="M280.35 105.38 a184.49 184.49 0 1 0 368.98 0 a184.49 184.49 0 1 0 -368.98 0z" fill="rgba(87, 179, 255, 0.4)" class="triangle-float2"></path></g><defs><mask id="SvgjsMask1434"><rect width="1080" height="640" fill="#ffffff"></rect></mask><linearGradient x1="10.19%" y1="-17.19%" x2="89.81%" y2="117.19%" gradientUnits="userSpaceOnUse" id="SvgjsLinearGradient1435"><stop stop-color="rgba(255, 241, 231, 1)" offset="0"></stop><stop stop-color="rgba(255, 241, 254, 1)" offset="1"></stop></linearGradient></defs></svg>