<svg xmlns="http://www.w3.org/2000/svg" version="1.1" xmlns:xlink="http://www.w3.org/1999/xlink" xmlns:svgjs="http://svgjs.com/svgjs" width="1440" height="560" preserveAspectRatio="none" viewBox="0 0 1440 560"><g mask="url(&quot;#SvgjsMask1420&quot;)" fill="none"><rect width="1440" height="560" x="0" y="0" fill="url(#SvgjsLinearGradient1421)"></rect><path d="M1318.652,225.303C1333.447,225.869,1349.347,222.123,1356.921,209.401C1364.628,196.457,1360.912,180.3,1353.125,167.404C1345.634,154.998,1333.143,146.165,1318.652,146.024C1303.923,145.88,1290.118,153.827,1282.993,166.719C1276.082,179.224,1277.715,194.448,1285.144,206.653C1292.268,218.356,1304.961,224.779,1318.652,225.303" fill="rgba(87, 179, 255, 0.4)" class="triangle-float2"></path><path d="M1212.233,395.699C1233.908,396.984,1255.871,386.624,1266.037,367.438C1275.712,349.178,1268.579,327.685,1257.522,310.227C1247.37,294.197,1231.192,283.229,1212.233,282.486C1191.835,281.687,1170.229,288.555,1160.349,306.419C1150.697,323.872,1158.429,344.409,1168.45,361.653C1178.406,378.785,1192.453,394.526,1212.233,395.699" fill="rgba(87, 179, 255, 0.4)" class="triangle-float1"></path><path d="M658.1 207.19 a178.51 178.51 0 1 0 357.02 0 a178.51 178.51 0 1 0 -357.02 0z" fill="rgba(87, 179, 255, 0.4)" class="triangle-float1"></path><path d="M889.9 461.44 a105.76 105.76 0 1 0 211.52 0 a105.76 105.76 0 1 0 -211.52 0z" fill="rgba(87, 179, 255, 0.4)" class="triangle-float1"></path><path d="M1092.799,454.379C1145.151,455.44,1196.358,435.581,1225.448,392.042C1258.17,343.067,1274.947,278.273,1243.91,228.213C1213.938,179.871,1149.675,178.683,1092.799,178.089C1034.37,177.478,965.896,174.721,936.117,224.996C906.041,275.773,935.859,338.116,969.146,386.848C997.537,428.413,1042.473,453.359,1092.799,454.379" fill="rgba(87, 179, 255, 0.4)" class="triangle-float2"></path><path d="M1098.64 104.5 a172.58 172.58 0 1 0 345.16 0 a172.58 172.58 0 1 0 -345.16 0z" fill="rgba(87, 179, 255, 0.4)" class="triangle-float2"></path><path d="M370.818,302.537C385.873,303.132,402.943,302.6,411.052,289.901C419.58,276.546,415.949,258.866,407.094,245.727C399.215,234.037,384.915,230.224,370.818,230.203C356.673,230.182,341.791,233.587,334.351,245.617C326.585,258.176,327.776,274.49,335.742,286.923C343.142,298.473,357.112,301.995,370.818,302.537" fill="rgba(87, 179, 255, 0.4)" class="triangle-float3"></path><path d="M1153.79 75.74 a118.18 118.18 0 1 0 236.36 0 a118.18 118.18 0 1 0 -236.36 0z" fill="rgba(87, 179, 255, 0.4)" class="triangle-float1"></path></g><defs><mask id="SvgjsMask1420"><rect width="1440" height="560" fill="#ffffff"></rect></mask><linearGradient x1="15.28%" y1="-39.29%" x2="84.72%" y2="139.29%" gradientUnits="userSpaceOnUse" id="SvgjsLinearGradient1421"><stop stop-color="rgba(255, 241, 231, 1)" offset="0"></stop><stop stop-color="rgba(255, 241, 254, 1)" offset="1"></stop></linearGradient></defs></svg>