<svg xmlns="http://www.w3.org/2000/svg" version="1.1" xmlns:xlink="http://www.w3.org/1999/xlink" xmlns:svgjs="http://svgjs.com/svgjs" width="1080" height="640" preserveAspectRatio="none" viewBox="0 0 1080 640"><g mask="url(&quot;#SvgjsMask1464&quot;)" fill="none"><rect width="1080" height="640" x="0" y="0" fill="url(#SvgjsLinearGradient1465)"></rect><path d="M729.029,535.032C783.243,534.261,829.785,501.383,858.038,455.107C887.714,406.5,903.574,345.607,874.62,296.566C846.02,248.124,785.257,234.863,729.029,236.594C676.29,238.218,625.646,260.025,598.178,305.076C569.562,352.009,566.32,411.091,593.506,458.867C620.974,507.139,673.495,535.821,729.029,535.032" fill="rgba(87, 179, 255, 0.4)" class="triangle-float2"></path><path d="M995.317,164.42C1026.125,166.559,1061.706,161.371,1076.282,134.145C1090.438,107.705,1071.655,77.884,1055.001,52.942C1040.741,31.585,1020.974,13.971,995.317,12.886C967.725,11.719,939.902,23.517,926.196,47.493C912.575,71.319,917.767,100.486,931.733,124.111C945.42,147.265,968.485,162.557,995.317,164.42" fill="rgba(87, 179, 255, 0.4)" class="triangle-float3"></path><path d="M516.966,692.631C572.533,689.535,619.544,654.368,646.049,605.432C671.252,558.901,670.389,503.428,644.417,457.322C617.934,410.309,570.922,376.808,516.966,376.281C462.15,375.746,414.657,408.603,385.132,454.792C352.729,505.483,331.143,568.731,360.31,621.351C390.12,675.131,455.572,696.051,516.966,692.631" fill="rgba(87, 179, 255, 0.4)" class="triangle-float1"></path><path d="M841.1100807697725 672.9363913188597L993.0359231767535 672.9363913188597 993.0359231767534 521.0105489118787 841.1100807697725 521.0105489118787z" fill="rgba(87, 179, 255, 0.4)" class="triangle-float3"></path><path d="M671.9040960147415 656.9418251583703L711.2659719067813 568.533604414995 622.8577511634061 529.1717285229553 583.4958752713662 617.5799492663306z" fill="rgba(87, 179, 255, 0.4)" class="triangle-float3"></path><path d="M1017.1750616470878 621.3349355818988L1123.3829118247163 494.7613485710023 996.8093248138199 388.5534983933738 890.6014746361914 515.1270854042702z" fill="rgba(87, 179, 255, 0.4)" class="triangle-float2"></path></g><defs><mask id="SvgjsMask1464"><rect width="1080" height="640" fill="#ffffff"></rect></mask><linearGradient x1="10.19%" y1="-17.19%" x2="89.81%" y2="117.19%" gradientUnits="userSpaceOnUse" id="SvgjsLinearGradient1465"><stop stop-color="rgba(255, 241, 231, 1)" offset="0"></stop><stop stop-color="rgba(255, 241, 254, 1)" offset="1"></stop></linearGradient></defs></svg>