<?xml version="1.0" encoding="utf-8"?>
<svg viewBox="0 0 463.006 463.006" xmlns="http://www.w3.org/2000/svg">
  <defs>
    <linearGradient gradientUnits="userSpaceOnUse" x1="237.641" y1="353.498" x2="237.641" y2="816.505" id="gradient-1" gradientTransform="matrix(-0.534011, -0.049576, 0.011358, -0.218743, 347.537576, 352.698898)">
      <stop offset="0" style="stop-color: rgb(45, 75, 73);"/>
      <stop offset="1" style="stop-color: rgb(0, 54, 54);"/>
    </linearGradient>
    <linearGradient gradientUnits="userSpaceOnUse" x1="256.97" y1="31.381" x2="256.97" y2="251.122" id="gradient-0" gradientTransform="matrix(0.78052, 0.640575, -0.967614, 0.77892, 226.369873, -150.196777)">
      <stop offset="0" style="stop-color: rgb(32, 178, 170);"/>
      <stop offset="1" style="stop-color: rgb(0, 139, 139); stop-opacity: 0.33;"/>
    </linearGradient>
    <linearGradient gradientUnits="userSpaceOnUse" x1="256.97" y1="31.381" x2="256.97" y2="251.122" id="gradient-2" gradientTransform="matrix(0.78052, 0.640575, -0.967614, 0.77892, 226.369873, -150.196777)">
      <stop offset="0" style="stop-color: rgb(139, 32, 178);"/>
      <stop offset="1" style="stop-opacity: 0.33; stop-color: rgb(139, 0, 90);"/>
    </linearGradient>
    <linearGradient gradientUnits="userSpaceOnUse" x1="256.97" y1="31.381" x2="256.97" y2="251.122" id="gradient-3" gradientTransform="matrix(0.78052, 0.640575, -0.967614, 0.77892, 226.369873, -150.196777)">
      <stop offset="0" style="stop-color: rgb(255, 45, 45);"/>
      <stop offset="1" style="stop-opacity: 0.33; stop-color: rgb(202, 132, 0);"/>
    </linearGradient>
  </defs>
  <rect x="156.403" y="28.292" width="257.255" height="198.11" style="fill: url(#gradient-0); fill-opacity: 0.3;" rx="11.656" ry="11.656" transform="matrix(-0.922263, 0.386564, -0.829158, -0.73675, 610.514954, 160.775528)"/>
  <rect x="156.403" y="28.292" width="257.255" height="198.11" style="fill-opacity: 0.3; fill: url(#gradient-2);" rx="11.656" ry="11.656" transform="matrix(-0.922263, 0.386564, -0.829158, -0.73675, 607.185913, 232.416397)"/>
  <rect x="156.403" y="28.292" width="257.255" height="198.11" style="fill-opacity: 0.3; fill: url(#gradient-3);" rx="11.656" ry="11.656" transform="matrix(-0.922263, 0.386564, -0.829158, -0.73675, 604.222351, 303.482941)"/>
  <path d="M 251.094 288.26 L 239.999 288.26 L 243.069 99.409 C 243.161 93.771 241.588 88.449 238.639 84.42 C 235.691 80.39 231.744 78.171 227.528 78.171 C 223.312 78.171 219.365 80.389 216.417 84.42 C 213.468 88.449 211.894 93.771 211.987 99.409 L 215.056 288.26 L 203.96 288.26 C 195.249 288.26 188.161 297.737 188.161 309.386 L 188.161 370.941 C 188.161 380.394 192.919 388.765 199.731 391.295 L 246.867 408.802 C 248.281 409.328 249.715 409.587 251.137 409.587 C 254.535 409.587 257.859 408.108 260.654 405.266 C 264.618 401.237 266.893 395.107 266.893 388.448 L 266.893 309.386 C 266.893 297.737 259.806 288.26 251.094 288.26 Z M 230.427 93.205 C 231.853 91.257 225.131 88.38 227.169 88.38 C 229.209 88.38 222.131 88.44 223.556 90.387 C 224.981 92.337 224.563 99.774 224.518 102.498 L 227.526 256.191 L 227.607 256.665 L 229.541 100.344 C 229.496 97.619 229.002 95.154 230.427 93.205 Z M 224.037 265.343 L 221.838 318.229 C 221.791 321.113 229.7 319.775 227.512 319.775 C 225.354 319.775 223.562 317.429 223.515 314.543 L 234.08 264.43 L 224.037 265.343 Z M 258.863 388.448 C 258.863 391.723 257.745 394.737 255.796 396.717 C 253.846 398.7 251.375 399.333 249.015 398.456 L 201.88 380.95 C 198.53 379.706 196.191 375.589 196.191 370.941 L 196.191 309.386 C 196.191 303.657 199.676 298.996 203.96 298.996 L 215.23 298.996 L 215.487 314.777 C 215.628 323.453 221.022 330.511 227.542 330.511 C 234.032 330.511 239.427 323.453 239.567 314.777 L 239.824 298.996 L 251.094 298.996 C 255.378 298.996 258.862 303.657 258.862 309.386 L 258.862 388.448 L 258.863 388.448 Z" style="paint-order: fill; fill: url(#gradient-1);" transform="matrix(0.95398, 0.299871, -0.299871, 0.95398, 83.603098, -57.005383)"/>
</svg>